HIERARCHY
ROOT Hips
{
	OFFSET -0.001795 -0.223333 0.028219
	CHANNELS 6 Xposition Yposition Zposition Zrotation Yrotation Xrotation 
	JOINT LeftUpLeg
	{
		OFFSET 0.069520 -0.091406 -0.006815
		CHANNELS 3 Zrotation Yrotation Xrotation
		JOINT LeftLeg
		{
			OFFSET 0.034277 -0.375199 -0.004496
			CHANNELS 3 Zrotation Yrotation Xrotation
			JOINT LeftFoot
			{
				OFFSET -0.013596 -0.397961 -0.043693
				CHANNELS 3 Zrotation Yrotation Xrotation
				JOINT LeftToe
				{
					OFFSET 0.026358 -0.055791 0.119288
					CHANNELS 3 Zrotation Yrotation Xrotation
					End Site
					{
						OFFSET 0.000000 0.000000 0.000000
					}
				}
			}
		}
	}
	JOINT RightUpLeg
	{
		OFFSET -0.067670 -0.090522 -0.004320
		CHANNELS 3 Zrotation Yrotation Xrotation
		JOINT RightLeg
		{
			OFFSET -0.038290 -0.382569 -0.008850
			CHANNELS 3 Zrotation Yrotation Xrotation
			JOINT RightFoot
			{
				OFFSET 0.015774 -0.398415 -0.042312
				CHANNELS 3 Zrotation Yrotation Xrotation
				JOINT RightToe
				{
					OFFSET -0.025372 -0.048144 0.123348
					CHANNELS 3 Zrotation Yrotation Xrotation
					End Site
					{
						OFFSET 0.000000 0.000000 0.000000
					}
				}
			}
		}
	}
	JOINT Spine
	{
		OFFSET -0.002533 0.108963 -0.026696
		CHANNELS 3 Zrotation Yrotation Xrotation
		JOINT Spine1
		{
			OFFSET 0.005487 0.135180 0.001092
			CHANNELS 3 Zrotation Yrotation Xrotation
			JOINT Spine2
			{
				OFFSET 0.001457 0.052922 0.025425
				CHANNELS 3 Zrotation Yrotation Xrotation
				JOINT Neck
				{
					OFFSET -0.002778 0.213870 -0.042857
					CHANNELS 3 Zrotation Yrotation Xrotation
					JOINT Head
					{
						OFFSET 0.005152 0.064970 0.051349
						CHANNELS 3 Zrotation Yrotation Xrotation
						End Site
						{
							OFFSET 0.000000 0.000000 0.000000
						}
					}
				}
				JOINT LeftShoulder
				{
					OFFSET 0.078845 0.121749 -0.034090
					CHANNELS 3 Zrotation Yrotation Xrotation
					JOINT LeftArm
					{
						OFFSET 0.090977 0.030469 -0.008868
						CHANNELS 3 Zrotation Yrotation Xrotation
						JOINT LeftForeArm
						{
							OFFSET 0.259612 -0.012772 -0.027456
							CHANNELS 3 Zrotation Yrotation Xrotation
							JOINT LeftHand
							{
								OFFSET 0.249234 0.008986 -0.001171
								CHANNELS 3 Zrotation Yrotation Xrotation
								End Site
								{
									OFFSET 0.000000 0.000000 0.000000
								}
							}
						}
					}
				}
				JOINT RightShoulder
				{
					OFFSET -0.081759 0.118833 -0.038615
					CHANNELS 3 Zrotation Yrotation Xrotation
					JOINT RightArm
					{
						OFFSET -0.096012 0.032551 -0.009143
						CHANNELS 3 Zrotation Yrotation Xrotation
						JOINT RightForeArm
						{
							OFFSET -0.253742 -0.013329 -0.021401
							CHANNELS 3 Zrotation Yrotation Xrotation
							JOINT RightHand
							{
								OFFSET -0.255298 0.007772 -0.005559
								CHANNELS 3 Zrotation Yrotation Xrotation
								End Site
								{
									OFFSET 0.000000 0.000000 0.000000
								}
							}
						}
					}
				}
			}
		}
	}
}
MOTION
Frames: 18
Frame Time: 0.050000
0.000000 0.948032 0.000000 0.837381 2.500486 -1.724377 4.907344 0.249050 6.978287 -3.624839 0.388385 -6.801214 5.952963 14.739160 14.875632 0.000000 0.000000 0.000000 -6.207985 -0.141610 4.514747 3.101541 -0.366716 -1.519963 -6.485593 -16.840016 11.224123 0.000000 0.000000 0.000000 6.401380 -0.448322 4.427026 -6.725089 2.270040 -24.585429 -1.721126 5.569826 28.756511 8.172664 -2.524636 -23.166028 0.000000 0.000000 0.000000 -7.990374 -1.613158 -0.402518 -55.748980 -4.405943 -7.579087 -12.470084 -22.746693 3.338631 0.000000 0.000000 0.000000 16.877212 -9.617352 -4.542527 63.188645 5.773476 -5.503850 8.202921 21.990438 2.870554 0.000000 0.000000 0.000000 
-0.000111 0.947058 0.000107 0.908619 2.578909 -1.356842 5.165812 0.229853 7.123016 -3.689015 0.388951 -7.587373 6.606007 15.670801 14.750978 0.000000 0.000000 0.000000 -6.618722 -0.081250 3.741821 3.354504 -0.381828 -0.445781 -6.815406 -17.445324 11.382941 0.000000 0.000000 0.000000 7.144176 -0.478678 4.317129 -7.280990 2.381757 -24.915842 -2.532061 5.432735 28.777976 7.192226 -1.950660 -22.863831 0.000000 0.000000 0.000000 -8.158867 0.310469 -1.223872 -55.473400 -3.885177 -7.770287 -11.337858 -22.204139 3.040543 0.000000 0.000000 0.000000 16.535737 -9.673008 -4.580369 64.485428 4.430883 -6.201518 7.650274 22.643311 2.876683 0.000000 0.000000 0.000000 
-0.000262 0.946625 0.000054 1.194441 2.865205 -1.099239 5.068236 0.207559 6.595969 -3.693684 0.387287 -6.579914 6.249580 15.183124 14.815243 0.000000 0.000000 0.000000 -7.025475 -0.073941 3.953800 3.122129 -0.364874 -1.036276 -6.509217 -16.867294 11.500371 0.000000 0.000000 0.000000 6.657401 -0.427495 3.962970 -7.304160 2.384459 -25.017986 -2.254985 5.242670 29.440954 6.533465 -1.376226 -24.127613 0.000000 0.000000 0.000000 -8.610639 -0.036618 -1.123024 -55.705512 -3.601885 -8.007418 -9.363774 -22.231594 2.678636 0.000000 0.000000 0.000000 16.886422 -10.708768 -5.168168 62.944861 4.505487 -6.245064 8.427219 21.416626 2.833002 0.000000 0.000000 0.000000 
-0.000535 0.946827 0.000176 1.352633 3.164970 -1.727911 5.173565 0.224136 7.165459 -3.882054 0.393935 -6.430676 6.227433 15.171809 14.775095 0.000000 0.000000 0.000000 -7.216001 -0.106538 4.507143 3.200008 -0.371418 -0.620141 -6.512103 -16.875722 11.836227 0.000000 0.000000 0.000000 6.674966 -0.502241 4.834788 -7.643402 2.455252 -25.317710 -2.640791 4.919731 29.809444 6.103575 -1.179207 -23.858552 0.000000 0.000000 0.000000 -8.259853 1.170569 -1.563781 -56.119313 -3.456463 -8.207177 -8.362060 -21.992984 2.476419 0.000000 0.000000 0.000000 16.672362 -11.214204 -5.448314 62.666209 4.398205 -6.326350 9.650071 21.598572 3.092460 0.000000 0.000000 0.000000 
-0.000977 0.947673 0.000348 1.288258 3.560770 -1.767882 5.127029 0.214975 7.060307 -3.861340 0.388806 -6.261425 5.627596 14.289498 14.463572 0.000000 0.000000 0.000000 -6.983782 -0.137296 4.711546 2.618386 -0.309358 -0.564335 -6.243932 -16.348448 11.722592 0.000000 0.000000 0.000000 6.395976 -0.519549 5.140407 -7.150397 2.359799 -25.053748 -3.087603 4.542929 29.264451 5.747611 -1.042759 -23.320757 0.000000 0.000000 0.000000 -8.004612 1.628874 -1.711903 -56.516407 -2.826113 -8.516097 -8.100657 -21.648771 2.390310 0.000000 0.000000 0.000000 15.656440 -11.462880 -5.537286 62.326023 3.316903 -6.742334 10.016680 21.551048 3.128056 0.000000 0.000000 0.000000 
-0.001338 0.948728 0.000633 1.249651 3.005807 -1.477567 5.268441 0.201629 6.774078 -3.938499 0.399012 -6.102628 5.902359 14.668391 14.620865 0.000000 0.000000 0.000000 -6.938526 -0.108570 4.435270 2.518241 -0.293977 -0.512351 -5.709994 -15.402464 11.803271 0.000000 0.000000 0.000000 6.145578 -0.502601 5.053194 -7.107535 2.310837 -25.718985 -2.917001 4.586636 29.898719 5.362892 -0.817705 -23.631526 0.000000 0.000000 0.000000 -7.821908 2.692212 -2.096019 -56.690260 -1.931783 -9.007081 -7.718510 -21.299709 2.303397 0.000000 0.000000 0.000000 15.192441 -12.243313 -5.971715 61.920686 2.483312 -7.180926 10.243020 22.063561 3.258049 0.000000 0.000000 0.000000 
-0.001743 0.949048 0.001154 1.173048 2.342105 -1.459057 5.230594 0.216011 6.721891 -4.006695 0.410166 -5.883122 6.065095 14.880692 14.849917 0.000000 0.000000 0.000000 -6.679946 -0.082302 3.920883 2.465394 -0.272851 0.167046 -5.367175 -14.734041 10.909920 0.000000 0.000000 0.000000 6.064968 -0.524799 5.344512 -7.117101 2.304044 -25.783496 -3.092378 4.375644 29.711685 5.592488 -1.111890 -23.316483 0.000000 0.000000 0.000000 -7.948410 3.571127 -2.424443 -56.320224 -0.595051 -9.508759 -8.112300 -21.555546 2.436453 0.000000 0.000000 0.000000 14.853903 -12.612876 -6.245627 61.231104 1.736063 -7.525037 10.965925 23.770932 3.691933 0.000000 0.000000 0.000000 
-0.002109 0.949225 0.001819 1.141970 0.614405 -1.351737 5.101629 0.265730 6.833550 -4.140956 0.437198 -5.633957 7.080356 16.229588 14.920659 0.000000 0.000000 0.000000 -6.768722 -0.011604 3.295787 2.789837 -0.291452 0.652204 -4.973296 -14.031895 10.159301 0.000000 0.000000 0.000000 5.687225 -0.521907 5.562290 -6.686322 2.171827 -26.175561 -3.045916 4.859504 29.964939 5.597690 -1.129779 -23.992790 0.000000 0.000000 0.000000 -8.030153 4.422058 -2.735467 -56.205025 0.517881 -9.991723 -9.060557 -22.074325 2.724483 0.000000 0.000000 0.000000 14.666542 -13.444434 -6.765294 59.960239 1.672261 -7.542046 11.352553 26.017192 4.193813 0.000000 0.000000 0.000000 
-0.002689 0.948832 0.002414 0.999106 -0.966258 -1.313350 4.974236 0.322197 7.139547 -4.186799 0.457023 -5.742570 7.849282 17.264313 15.371413 0.000000 0.000000 0.000000 -6.474514 0.036338 2.611030 2.765667 -0.272223 1.035111 -4.507275 -13.167413 9.589968 0.000000 0.000000 0.000000 5.660096 -0.536649 5.788897 -6.591527 2.118505 -26.660555 -3.402925 4.867536 30.006238 6.402565 -1.738064 -24.514233 0.000000 0.000000 0.000000 -7.708354 5.657163 -3.121528 -55.654043 2.153231 -10.571749 -10.579762 -23.056083 3.219993 0.000000 0.000000 0.000000 13.862149 -14.468709 -7.357248 57.455427 1.914326 -7.234551 12.938876 29.536302 5.212273 0.000000 0.000000 0.000000 
-0.003454 0.948865 0.002803 0.996985 -3.141726 -1.328708 4.694881 0.418694 7.697439 -4.431572 0.496859 -5.712536 9.131773 18.985031 15.744040 0.000000 0.000000 0.000000 -6.307200 0.106506 1.708932 2.762638 -0.244155 1.803084 -3.970249 -12.142302 8.849469 0.000000 0.000000 0.000000 5.512192 -0.558013 6.219525 -6.079503 1.969889 -27.236635 -4.008645 4.886421 29.698489 6.755160 -2.188004 -24.434324 0.000000 0.000000 0.000000 -7.334819 5.938618 -3.063922 -54.671264 3.677460 -10.953223 -13.007819 -23.234707 3.817100 0.000000 0.000000 0.000000 13.305215 -14.752644 -7.610737 52.526989 3.453334 -6.170121 12.684145 32.792312 5.610244 0.000000 0.000000 0.000000 
-0.004451 0.949263 0.002795 0.923395 -4.942140 -1.296306 4.553623 0.500219 8.230979 -4.563991 0.525038 -6.411296 10.002707 20.122909 16.516593 0.000000 0.000000 0.000000 -6.181853 0.150031 1.273624 2.949720 -0.248178 2.020769 -3.842411 -11.894690 8.331860 0.000000 0.000000 0.000000 5.521074 -0.559021 6.294007 -5.742856 1.871931 -27.480731 -4.988943 4.283064 29.251638 7.501147 -2.877235 -24.834992 0.000000 0.000000 0.000000 -5.781313 5.987692 -2.762716 -53.898082 3.881533 -10.735405 -14.875297 -24.460034 4.541866 0.000000 0.000000 0.000000 12.184767 -15.763365 -8.150811 47.696814 5.913169 -4.758062 9.177543 36.685302 4.954908 0.000000 0.000000 0.000000 
-0.005527 0.950189 0.002430 0.741692 -6.943803 -1.080272 4.148995 0.571817 8.285602 -4.081544 0.515406 -6.890582 11.173263 21.596997 17.859633 0.000000 0.000000 0.000000 -5.873082 0.201563 0.517516 2.572414 -0.177598 2.695876 -3.462620 -11.246449 8.188398 0.000000 0.000000 0.000000 5.692174 -0.599464 6.711130 -5.089990 1.707453 -28.025025 -6.186918 3.565593 28.711821 7.561453 -3.237065 -24.719966 0.000000 0.000000 0.000000 -4.411136 4.896054 -2.077317 -52.321256 3.872265 -10.235715 -17.726527 -25.841810 5.596045 0.000000 0.000000 0.000000 11.280761 -16.007657 -8.309704 41.961848 8.819710 -3.319334 1.087397 40.034790 2.232315 0.000000 0.000000 0.000000 
-0.006494 0.950694 0.001508 0.795312 -8.499131 -1.036752 3.949493 0.629338 8.444152 -3.946939 0.523896 -7.114428 11.657365 22.153342 18.295802 0.000000 0.000000 0.000000 -6.056429 0.248853 0.165965 2.917707 -0.198714 2.942973 -3.241790 -10.863772 8.013710 0.000000 0.000000 0.000000 5.369582 -0.623252 7.341547 -4.397756 1.551887 -28.418320 -7.202058 2.550585 28.205473 7.861601 -3.670071 -25.116460 0.000000 0.000000 0.000000 -2.303539 3.679264 -1.418611 -51.323681 2.685327 -9.327317 -19.400067 -28.258370 6.730771 0.000000 0.000000 0.000000 10.583140 -16.824424 -8.753780 36.103117 12.677010 -1.863211 -11.440027 42.868112 -2.770587 0.000000 0.000000 0.000000 
-0.007089 0.951617 -0.000034 0.720933 -9.436525 -0.804231 3.828018 0.645860 8.348333 -3.695564 0.514469 -7.086945 12.091557 22.650216 18.815574 0.000000 0.000000 0.000000 -5.823737 0.299617 -0.929170 2.775335 -0.154593 3.812119 -3.306845 -10.984226 7.773830 0.000000 0.000000 0.000000 5.651337 -0.701660 8.134449 -4.003046 1.466430 -28.866940 -8.241738 1.639594 27.579969 7.847808 -3.802667 -25.633268 0.000000 0.000000 0.000000 -0.914555 3.004273 -1.114265 -48.983913 0.789015 -8.026054 -20.121520 -30.992821 7.733415 0.000000 0.000000 0.000000 10.246192 -16.724471 -8.766205 29.961295 16.176108 -0.899629 -23.567143 41.052669 -7.482167 0.000000 0.000000 0.000000 
-0.007254 0.951387 -0.001824 0.703407 -10.539072 -0.599543 3.604092 0.651738 8.028136 -3.489071 0.506574 -6.904689 12.864012 23.581753 19.407149 0.000000 0.000000 0.000000 -6.111765 0.369086 -1.889876 2.967295 -0.151058 4.443730 -3.025634 -10.677537 8.267367 0.000000 0.000000 0.000000 5.633942 -0.738336 8.686514 -3.027941 1.267985 -29.267237 -9.109403 1.721519 27.028226 8.169244 -4.134403 -25.046284 0.000000 0.000000 0.000000 1.160418 1.446219 -0.549209 -46.855358 -2.265854 -6.455099 -18.048029 -33.154946 7.632527 0.000000 0.000000 0.000000 9.002284 -17.067458 -8.617355 26.218333 20.107368 -0.230703 -33.814022 39.389121 -11.089677 0.000000 0.000000 0.000000 
-0.007188 0.951785 -0.003441 0.730157 -11.568801 -0.629336 3.708876 0.630793 7.609811 -3.771451 0.528147 -5.933041 13.133810 23.910936 19.240842 0.000000 0.000000 0.000000 -5.950566 0.414825 -2.769605 2.536506 -0.066630 5.224104 -2.575794 -10.017896 8.606693 0.000000 0.000000 0.000000 5.821704 -0.764107 8.966607 -2.772777 1.191992 -28.682758 -9.647306 1.150498 26.304302 7.768310 -4.146971 -24.336554 0.000000 0.000000 0.000000 2.584301 0.580553 -0.303867 -44.037064 -5.006505 -5.067716 -13.854771 -34.020324 6.546203 0.000000 0.000000 0.000000 9.080985 -16.287273 -8.378598 23.165316 23.435006 0.136106 -42.049551 36.856237 -13.569460 0.000000 0.000000 0.000000 
-0.006885 0.952141 -0.004554 0.912822 -12.354731 -0.641208 3.363393 0.630873 7.261224 -3.390726 0.493956 -5.386357 13.682638 24.564119 19.603822 0.000000 0.000000 0.000000 -6.314180 0.458541 -3.247693 2.583141 -0.061936 5.310792 -2.239321 -9.874145 9.782791 0.000000 0.000000 0.000000 5.500489 -0.742177 9.094371 -2.371898 1.112623 -28.846314 -9.729461 0.882408 26.326730 7.315202 -4.109475 -23.510593 0.000000 0.000000 0.000000 3.853959 -0.266060 -0.103837 -41.035116 -7.072792 -4.111122 -8.860992 -34.660793 5.101028 0.000000 0.000000 0.000000 8.678441 -15.849982 -8.130681 22.898460 25.035585 0.317919 -47.578900 37.106536 -15.983505 0.000000 0.000000 0.000000 
-0.006210 0.952732 -0.005486 0.782399 -13.786111 -0.623856 3.549259 0.590662 6.629124 -3.852166 0.541550 -4.036792 14.491982 25.719895 18.979389 0.000000 0.000000 0.000000 -6.371080 0.506418 -3.863097 2.605891 -0.050566 5.317096 -1.872981 -9.445336 10.095325 0.000000 0.000000 0.000000 5.188494 -0.706093 9.052653 -2.032044 1.021510 -28.679782 -9.283302 1.552769 26.340367 7.800030 -4.566648 -22.540694 0.000000 0.000000 0.000000 5.828086 -0.332210 -0.200087 -37.874407 -8.581708 -3.411420 -1.905146 -35.725059 3.058271 0.000000 0.000000 0.000000 9.414541 -15.341209 -8.143155 23.866133 26.227796 0.572951 -49.041997 39.637807 -17.801408 0.000000 0.000000 0.000000 
